<?xml version="1.0" encoding="UTF-8"?>
<svg data-name="Layer 1" viewBox="0 0 866.76 305.13" xmlns="http://www.w3.org/2000/svg" xmlns:xlink="http://www.w3.org/1999/xlink">
<defs>
<style>.cls-1{fill:#fff;}.cls-2{fill:url(#a);}.cls-3{fill:url(#s);}.cls-4{fill:url(#i);}.cls-5{fill:url(#h);}.cls-6{fill:url(#g);}.cls-7{fill:url(#f);}.cls-8{fill:url(#e);}.cls-9{fill:url(#d);}.cls-10{fill:url(#c);}.cls-11{fill:url(#ac);}.cls-12{fill:url(#ab);}.cls-13{fill:url(#aa);}.cls-14{fill:url(#z);}.cls-15{fill:url(#y);}.cls-16{fill:url(#x);}.cls-17{fill:url(#w);}.cls-18{fill:url(#v);}.cls-19{fill:url(#u);}.cls-20{fill:url(#t);}.cls-21{fill:url(#r);}.cls-22{fill:url(#q);}.cls-23{fill:url(#p);}.cls-24{fill:url(#o);}.cls-25{fill:url(#n);}.cls-26{fill:url(#b);}.cls-27{fill:url(#m);}.cls-28{fill:url(#l);}.cls-29{fill:url(#k);}.cls-30{fill:url(#j);}</style>
<linearGradient id="a" x1="26.6" x2="317.85" y1="287.01" y2="-26.15" gradientUnits="userSpaceOnUse">
<stop stop-color="#bf0077" offset="0"/>
<stop stop-color="#e01e42" offset="1"/>
</linearGradient>
<linearGradient id="s" x1="47.34" x2="338.6" y1="306.31" y2="-6.85" xlink:href="#a"/>
<linearGradient id="i" x1="40.96" x2="332.22" y1="300.37" y2="-12.79" xlink:href="#a"/>
<linearGradient id="h" x1="93.99" x2="385.24" y1="349.69" y2="36.53" xlink:href="#a"/>
<linearGradient id="g" x1="76.58" x2="367.83" y1="333.49" y2="20.33" xlink:href="#a"/>
<linearGradient id="f" x1="-29.55" x2="261.7" y1="234.79" y2="-78.37" xlink:href="#a"/>
<linearGradient id="e" x1="20.2" x2="311.45" y1="281.06" y2="-32.1" xlink:href="#a"/>
<linearGradient id="d" x1="53.23" x2="344.48" y1="311.78" y2="-1.38" xlink:href="#a"/>
<linearGradient id="c" x1="97.11" x2="388.36" y1="352.59" y2="39.43" xlink:href="#a"/>
<linearGradient id="ac" x1="4.62" x2="295.87" y1="266.57" y2="-46.59" xlink:href="#a"/>
<linearGradient id="ab" x1="2.86" x2="294.11" y1="264.93" y2="-48.22" xlink:href="#a"/>
<linearGradient id="aa" x1="64.67" x2="355.92" y1="322.42" y2="9.26" xlink:href="#a"/>
<linearGradient id="z" x1="89.76" x2="381.01" y1="345.75" y2="32.59" xlink:href="#a"/>
<linearGradient id="y" x1="-22.21" x2="269.04" y1="241.61" y2="-71.55" xlink:href="#a"/>
<linearGradient id="x" x1="-9.03" x2="282.22" y1="253.87" y2="-59.29" xlink:href="#a"/>
<linearGradient id="w" x1="62.95" x2="354.2" y1="320.82" y2="7.66" xlink:href="#a"/>
<linearGradient id="v" x1="-26.46" x2="264.79" y1="237.67" y2="-75.49" xlink:href="#a"/>
<linearGradient id="u" x1="33.97" x2="325.22" y1="293.87" y2="-19.29" xlink:href="#a"/>
<linearGradient id="t" x1="33.55" x2="324.8" y1="293.47" y2="-19.69" xlink:href="#a"/>
<linearGradient id="r" x1="115.67" x2="406.92" y1="369.85" y2="56.69" xlink:href="#a"/>
<linearGradient id="q" x1="-48.14" x2="243.11" y1="217.5" y2="-95.65" xlink:href="#a"/>
<linearGradient id="p" x1="95.21" x2="386.46" y1="350.82" y2="37.66" xlink:href="#a"/>
<linearGradient id="o" x1="14.29" x2="305.54" y1="275.56" y2="-37.6" xlink:href="#a"/>
<linearGradient id="n" x1="-27.66" x2="263.6" y1="236.55" y2="-76.61" xlink:href="#a"/>
<linearGradient id="b" x1="29.26" x2="-14.16" y1="98.62" y2="56.24" gradientUnits="userSpaceOnUse">
<stop stop-color="#bf0077" offset="0"/>
<stop stop-color="#f9ad17" offset="1"/>
</linearGradient>
<linearGradient id="m" x1="280.34" x2="329.13" y1="211.11" y2="257.58" xlink:href="#b"/>
<linearGradient id="l" x1="207.65" x2="254.16" y1="39.63" y2="-9.78" xlink:href="#b"/>
<linearGradient id="k" x1="29.84" x2="-8.7" y1="212.55" y2="253.1" xlink:href="#b"/>
<linearGradient id="j" x1="30.55" x2="321.8" y1="290.69" y2="-22.47" xlink:href="#a"/>
</defs>
<title>logo</title>
<rect class="cls-1" x="428.25" y="78.48" width="14.75" height="67.04"/>
<path class="cls-1" d="M527.05,106.93V136a43.52,43.52,0,0,1-28.65,10.64c-20.88,0-35.24-14.66-35.24-34.67,0-19.06,14.84-34.66,35.15-34.66,12.07,0,19.35,3.25,26.34,9.19l-9.3,11.21c-5.17-4.31-9.76-6.82-17.52-6.82-10.73,0-19.26,9.5-19.26,21.08,0,12.25,8.44,21.26,20.32,21.26a23.51,23.51,0,0,0,13.87-4V106.93Z"/>
<rect class="cls-1" x="549.59" y="78.48" width="14.75" height="67.04"/>
<polygon class="cls-1" points="584.7 92.08 605.1 92.08 605.1 145.52 619.85 145.52 619.85 92.08 640.25 92.08 640.25 78.48 584.7 78.48"/>
<path class="cls-1" d="M689.11,78H675.52l-28.73,67.51h15l5.49-13.5.64-1.54,5.28-13h0l.42-1,8.49-20.76,8,19.61.88,2.14,5.26,13,.77,1.87,5.36,13.17h15.41Z"/>
<polygon class="cls-1" points="752.55 132.11 752.55 78.48 737.8 78.48 737.8 145.52 785.97 145.52 785.97 132.11"/>
<path class="cls-1" d="m346.33 78.48h26.14c21.07 0 35.63 14.52 35.63 33.52 0 18.87-14.56 33.52-35.63 33.52h-26.14zm26.14 53.73c12.07 0 20.21-8.14 20.21-20.21 0-11.87-8.14-20.2-20.21-20.2h-11.4v40.41z"/>
<path class="cls-1" d="M346.35,160.25h27.2c15.89,0,25.5,9.42,25.5,23.21,0,15.41-12,23.4-26.92,23.4H361v20H346.35Zm26.25,33.58c7.33,0,11.61-4.37,11.61-10.27,0-6.57-4.57-10.09-11.89-10.09H361v20.36Z"/>
<path class="cls-1" d="M422.26,160.25H452.7c8.46,0,15,2.38,19.4,6.76,3.71,3.71,5.71,8.94,5.71,15.41,0,10.74-5.8,17.5-14.27,20.64l16.27,23.78H462.68l-14.46-21.31H436.9v21.31H422.26Zm29.48,32.34c7.14,0,11.23-3.8,11.23-9.6,0-6.28-4.38-9.52-11.51-9.52H436.9v19.12Z"/>
<path class="cls-1" d="M503.39,160.25h50.23v13H518v13.51h31.39v13H518v14H554.1v13H503.39Z"/>
<path class="cls-1" d="m574.93 217.14l8.65-10.37c6 4.94 12.27 8.08 19.88 8.08 6 0 9.61-2.38 9.61-6.47 0-3.71-2.28-5.61-13.41-8.46-13.41-3.43-22.07-7.14-22.07-20.55 0-12.08 9.7-20.07 23.31-20.07a38.51 38.51 0 0 1 24.73 8.47l-7.61 11c-5.9-4.09-11.7-6.56-17.31-6.56s-8.57 2.57-8.57 6c0 4.38 2.86 5.8 14.37 8.75 13.5 3.52 21.12 8.37 21.12 20.17 0 13.22-10.09 20.64-24.45 20.64a42.37 42.37 0 0 1 -28.25 -10.63z"/>
<path class="cls-1" d="M652.74,160.25H703v13H667.29v13.51h31.39v13H667.29v14h36.15v13h-50.7Z"/>
<path class="cls-1" d="M728.83,160.25h13.51l31.2,41v-41H788v66.59H775.54l-32.25-42.33v42.33H728.83Z"/>
<path class="cls-1" d="M831.85,173.76H811.59V160.25h55.17v13.51H846.5v53.08H831.85Z"/>
<polygon class="cls-2" points="189.49 100.21 183.66 100.21 166.49 100.21 178.64 112.37 178.64 112.37 182.73 116.46 182.74 116.46 201.55 135.28 201.55 118.11 199.91 116.46 195.81 112.37 201.55 112.37 201.55 112.37 201.55 112.28 201.55 100.21"/>
<path class="cls-3" d="M259.28,114.31A40.8,40.8,0,0,0,263,102.62a72.43,72.43,0,0,0-18.77-2.41H205.65v16.25h.08l12.07,12.07V112.37h26.42A56.86,56.86,0,0,1,259.28,114.31Z"/>
<polygon class="cls-4" points="129.56 216.76 135.35 216.76 152.56 216.76 140.41 204.61 136.32 200.52 117.5 181.7 117.5 198.87 119.1 200.52 123.19 204.61 117.5 204.61 117.41 204.61 117.5 204.69 117.5 216.76"/>
<path class="cls-5" d="M306.16,158.49c0-19.75-8.94-36.63-24-47.05a33,33,0,0,0-3.63-2.32,58.21,58.21,0,0,0-11.64-5.32,43.94,43.94,0,0,1-3.76,11.77,30.49,30.49,0,0,1-1.9,3.68A56.87,56.87,0,0,1,252,131.19L236.24,147l8.61,8.61,15.78-15.78a71,71,0,0,0,11.48-14.9c.72-1.18,1.35-2.41,2-3.63a32.43,32.43,0,0,1,3.25,2.53c9.71,8.4,15.19,20.72,15.19,34.69s-5.44,26.33-15.06,34.69a63.21,63.21,0,0,1,4.81,12.23C297.22,194.86,306.16,178,306.16,158.49Z"/>
<polygon class="cls-6" points="217.8 188.41 217.8 182.58 217.8 165.41 205.65 177.56 201.55 181.66 182.69 200.52 199.91 200.52 201.55 198.83 205.65 194.74 205.65 200.52 205.65 200.56 205.69 200.52 217.8 200.52"/>
<path class="cls-7" d="M113.36,73.76a57.32,57.32,0,0,1,1.94-15,40.75,40.75,0,0,0-11.69-3.63,71.6,71.6,0,0,0-2.36,18.66v38.61H117.5v-.09l12.07-12.07H113.36V73.76Z"/>
<path class="cls-8" d="M101.25,200.52v4.09H74.79a55.15,55.15,0,0,1-15-2,41,41,0,0,0-3.71,11.73,72.35,72.35,0,0,0,18.73,2.4h38.57V200.52h0l-12.07-12.07Z"/>
<polygon class="cls-9" points="217.8 157.35 217.8 151.53 221.89 155.62 221.89 155.53 230.42 146.97 205.65 122.2 205.65 139.37 205.65 145.2 205.65 171.78 217.8 159.63"/>
<path class="cls-10" d="M205.65,243.18a54.93,54.93,0,0,1-2,15,40,40,0,0,0,11.78,3.67,73.81,73.81,0,0,0,2.36-18.69V204.61H201.55v.09l-12.06,12.06h16.16v26.42Z"/>
<polygon class="cls-11" points="139.48 96.08 135.35 100.21 123.19 112.37 140.37 112.37 146.19 112.37 172.86 112.37 160.71 100.21 158.34 100.21 152.52 100.21 156.61 96.12 156.66 96.08 156.57 96.08 148.05 87.56"/>
<path class="cls-12" d="M178.18,57.38,162.44,73.17l-2.91,2.91-8.61,8.56,8.61,8.61,2.82,2.83.09.08,0-.08h17.05L171,87.55l-2.91-2.91L171,81.73,186.79,66a54.11,54.11,0,0,1,12-9.2,40.32,40.32,0,0,0-5.7-10.89A72.26,72.26,0,0,0,178.18,57.38Z"/>
<path class="cls-13" d="M140.83,259.59l18.7-18.69,8.6-8.57-8.6-8.6-2.87-2.87,0-.05-.08.05H139.44l8.57,8.56h0l1.56,1.56,1.35,1.31L148,235.2,132.22,251a56.4,56.4,0,0,1-11.94,9.19,40.56,40.56,0,0,0,5.7,10.93A71.37,71.37,0,0,0,140.83,259.59Z"/>
<path class="cls-14" d="m230.42 170l2.91-2.92 2.91 2.92 15.76 15.75a55.81 55.81 0 0 1 9.24 12 39.75 39.75 0 0 0 10.87 -5.75 70.78 70.78 0 0 0 -11.48 -14.86l-27.3-27.3-8.57 8.61-1.35 1.31-1.52 1.52v0.08 17.05z"/>
<path class="cls-15" d="M88.59,147l-2.91,2.87L82.81,147,67,131.19a56.87,56.87,0,0,1-9.24-11.94,40.1,40.1,0,0,0-10.81,5.69A72.14,72.14,0,0,0,58.42,139.8L74.2,155.58l2.2,2.23.67.68,8.61,8.56,8.61-8.56,2.83-2.87,0,0,0-.05v-17Z"/>
<polygon class="cls-16" points="119.1 116.46 117.5 118.11 113.36 122.24 113.36 116.46 113.32 116.46 101.25 116.46 101.25 128.53 101.25 134.35 101.25 151.48 136.28 116.46"/>
<polygon class="cls-17" points="179.57 220.86 183.66 216.76 195.81 204.61 178.6 204.61 172.78 204.61 146.23 204.61 158.39 216.76 160.62 216.76 166.45 216.76 162.4 220.81 162.35 220.86 162.48 220.86 171 229.42"/>
<path class="cls-18" d="M52.09,213.18a43,43,0,0,1,3.76-11.82c.54-1.22,1.18-2.45,1.85-3.63a59.09,59.09,0,0,1,9.29-12L82.77,170,74.2,161.4,58.42,177.18A72.38,72.38,0,0,0,46.9,192c-.67,1.22-1.35,2.44-1.94,3.67a37,37,0,0,1-3.29-2.58c-9.67-8.39-15.15-20.72-15.15-34.64,0-14.1,5.44-26.37,15.06-34.73a62.76,62.76,0,0,1-4.81-12.19C21.79,122,12.85,139,12.85,158.49c0,19.7,9,36.63,24,47a42.76,42.76,0,0,0,3.62,2.32A60.47,60.47,0,0,0,52.09,213.18Z"/>
<path class="cls-19" d="M202.48,54.85a37.32,37.32,0,0,1,1.23,3.88,57.32,57.32,0,0,1,1.94,15V96.08H217.8V73.76a71.58,71.58,0,0,0-2.4-18.66c-.34-1.35-.76-2.65-1.19-4a36.8,36.8,0,0,1,4.22-.47c12.75-.88,25.28,3.93,35.11,13.76s14.81,22.49,13.88,35.19a64,64,0,0,1,12.07,5.24c3.17-18-2.49-36.29-16.28-50.09s-32.16-19.54-50.14-16.33c-1.43.25-2.87.55-4.3.92a60.27,60.27,0,0,0-12,4.48A45.13,45.13,0,0,1,202.48,54.85Z"/>
<path class="cls-20" d="M116.53,262.13a38.23,38.23,0,0,1-1.23-3.93,57,57,0,0,1-1.94-15V220.86H101.25v22.32a71.61,71.61,0,0,0,2.41,18.69c.33,1.35.76,2.66,1.18,4-1.39.21-2.83.38-4.22.46-12.75.89-25.32-3.92-35.15-13.75s-14.77-22.49-13.89-35.2a67,67,0,0,1-12.06-5.27c-3.13,18,2.49,36.29,16.28,50.09S88,281.71,105.93,278.54a39.42,39.42,0,0,0,4.35-1,58.78,58.78,0,0,0,11.9-4.43A45,45,0,0,1,116.53,262.13Z"/>
<path class="cls-21" d="M278.56,207.78a59,59,0,0,0-4.43-12,45.07,45.07,0,0,1-10.92,5.7c-1.31.46-2.62.88-4,1.22a56.25,56.25,0,0,1-15,1.94H221.89v12.15h22.33a71.5,71.5,0,0,0,18.65-2.4,40.47,40.47,0,0,0,4.05-1.23,35.28,35.28,0,0,1,.5,4.18c.93,12.75-3.88,25.28-13.84,35.24s-22.4,14.64-35.19,13.75a64.32,64.32,0,0,1-5.32,12.24c18,3.17,36.21-2.45,50.14-16.37s19.45-32.07,16.28-50.09C279.24,210.64,278.94,209.21,278.56,207.78Z"/>
<path class="cls-22" d="M40.44,109.2a63.19,63.19,0,0,0,4.48,12,44.69,44.69,0,0,1,10.88-5.66c1.31-.46,2.62-.88,4-1.26a58,58,0,0,1,15-1.9H97.12V100.21H74.79a71.42,71.42,0,0,0-18.61,2.41c-1.39.34-2.74.76-4.09,1.22a39.84,39.84,0,0,1-.51-4.26c-.88-12.7,4-25.23,13.89-35.15s22.36-14.64,35.11-13.76a62.48,62.48,0,0,1,5.35-12.23c-18-3.21-36.2,2.4-50.13,16.33S36.39,86.84,39.52,104.86C39.77,106.29,40.11,107.77,40.44,109.2Z"/>
<path class="cls-23" d="M202.44,262.13a38.51,38.51,0,0,1-3.67-1.9,56.21,56.21,0,0,1-12-9.24L171,235.2l-8.56,8.61,15.78,15.78a71.37,71.37,0,0,0,14.85,11.52c1.23.72,2.45,1.4,3.67,2-.8,1.14-1.68,2.19-2.57,3.25-8.4,9.66-20.72,15.15-34.64,15.15-14.1,0-26.38-5.45-34.78-15.07a63.67,63.67,0,0,1-12.15,4.77c10.47,15,27.39,23.93,46.93,23.93,19.7,0,36.54-8.95,47-23.89a36.84,36.84,0,0,0,2.28-3.63,60,60,0,0,0,5.45-11.77A46.49,46.49,0,0,1,202.44,262.13Z"/>
<polygon class="cls-24" points="113.36 177.56 113.36 171.78 113.36 145.2 101.25 157.31 101.25 159.67 101.25 165.45 97.2 161.4 97.12 161.32 97.12 161.44 88.59 169.97 97.12 178.49 101.25 182.63 101.25 182.63 113.36 194.74"/>
<path class="cls-25" d="M116.57,54.85a38.3,38.3,0,0,1,3.71,1.9A56.13,56.13,0,0,1,132.22,66l15.83,15.82,8.56-8.6L140.83,57.38A72.06,72.06,0,0,0,126,45.86c-1.23-.71-2.45-1.39-3.67-2,.8-1.14,1.69-2.24,2.57-3.29,8.4-9.62,20.72-15.11,34.65-15.11,14.09,0,26.37,5.49,34.72,15.11a64,64,0,0,1,12.24-4.85c-10.55-15-27.47-23.93-47-23.93-19.75,0-36.63,9-47,23.93a37.71,37.71,0,0,0-2.32,3.58,57.5,57.5,0,0,0-5.4,11.82A46.37,46.37,0,0,1,116.57,54.85Z"/>
<path class="cls-26" d="M36,105.86,10.63,74.08a5.44,5.44,0,0,0-.72-.72A4.58,4.58,0,1,0,4.2,80.52Z"/>
<path class="cls-27" d="M315.21,238l-31.78-25.34,25.34,31.78a5,5,0,0,0,.73.73,4.58,4.58,0,0,0,5.71-7.17Z"/>
<path class="cls-28" d="M244.23,7.43a4.58,4.58,0,0,0-7.16-5.71L211.72,33.5,243.5,8.16A4.58,4.58,0,0,0,244.23,7.43Z"/>
<path class="cls-29" d="M1,236.27A4.58,4.58,0,0,0,8.16,242L33.5,210.2,1.72,235.54A5,5,0,0,0,1,236.27Z"/>
<path class="cls-30" d="m155.6 135.17h-14.26v46.6h14.26c13.08 0 22.11-9 22.11-23.3s-9.03-23.3-22.11-23.3z"/>
</svg>
